<svg xmlns="http://www.w3.org/2000/svg" xmlns:xlink="http://www.w3.org/1999/xlink" preserveAspectRatio="xMidYMid" width="63" height="37" viewBox="0 0 63 37">
  <defs>
    <style>
      .cls-1 {
        fill: #222;
        fill-rule: evenodd;
      }
    </style>
  </defs>
  <path d="M59.458,31.138 L58.663,31.138 C58.648,30.487 58.555,29.856 58.397,29.249 L59.458,29.249 C60.558,29.249 61.116,28.693 61.116,27.597 L61.116,23.221 C61.105,22.519 60.651,22.233 59.618,21.752 C59.404,21.653 59.197,21.239 59.006,21.137 C57.935,20.564 54.365,18.229 53.302,17.329 C52.736,16.850 50.973,14.924 50.355,13.428 C50.101,12.814 48.946,10.823 47.830,8.897 C46.642,6.849 45.414,4.730 44.849,3.566 C44.039,1.896 43.629,1.896 42.639,1.896 L42.385,1.896 L32.065,1.896 L21.789,29.249 L41.027,29.249 C40.869,29.856 40.776,30.487 40.761,31.138 L20.427,31.138 C20.117,31.138 19.827,30.987 19.649,30.733 C19.472,30.479 19.431,30.155 19.539,29.865 L30.517,0.623 C30.655,0.253 31.009,0.007 31.406,0.007 L42.513,0.008 L42.639,0.007 C44.107,0.007 45.327,0.209 46.556,2.745 C47.090,3.846 48.300,5.934 49.471,7.952 C50.724,10.113 51.806,11.978 52.108,12.710 C52.571,13.830 54.106,15.531 54.531,15.891 C55.482,16.697 58.944,19.277 59.903,19.790 C60.064,19.876 60.240,19.958 60.420,20.041 C61.439,20.516 62.979,21.232 63.012,23.206 L63.012,27.597 C63.012,29.748 61.616,31.138 59.458,31.138 ZM0.947,6.536 C0.423,6.536 -0.001,6.113 -0.001,5.592 C-0.001,5.071 0.423,4.648 0.947,4.648 L26.460,4.648 L25.731,6.536 L0.947,6.536 ZM2.898,12.201 L22.961,12.201 L22.232,14.090 L2.898,14.090 C2.375,14.090 1.950,13.667 1.950,13.145 C1.950,12.624 2.375,12.201 2.898,12.201 ZM4.850,19.696 L19.484,19.696 L18.755,21.584 L4.850,21.584 C4.326,21.584 3.902,21.162 3.902,20.640 C3.902,20.119 4.326,19.696 4.850,19.696 ZM31.645,19.217 C31.645,20.018 30.993,20.668 30.188,20.668 C29.384,20.668 28.731,20.018 28.731,19.217 C28.731,18.415 29.384,17.766 30.188,17.766 C30.993,17.766 31.645,18.415 31.645,19.217 ZM33.525,4.323 C33.658,3.945 34.017,3.692 34.419,3.692 L41.958,3.692 C42.313,3.692 42.639,3.890 42.801,4.205 L47.676,13.661 C47.828,13.956 47.814,14.308 47.639,14.589 C47.467,14.868 47.161,15.037 46.833,15.037 C46.830,15.037 46.826,15.037 46.823,15.037 L31.124,15.063 C30.818,15.060 30.533,14.910 30.357,14.660 C30.182,14.411 30.138,14.092 30.240,13.805 L33.525,4.323 ZM45.272,13.132 L41.379,5.581 L35.089,5.581 L32.469,13.188 L45.272,13.132 ZM50.047,24.298 C53.571,24.298 56.427,27.143 56.427,30.653 C56.427,34.162 53.571,37.008 50.047,37.008 C46.524,37.008 43.668,34.162 43.668,30.653 C43.668,27.143 46.524,24.298 50.047,24.298 ZM50.045,34.773 C52.329,34.773 54.180,32.929 54.180,30.654 C54.180,28.379 52.329,26.535 50.045,26.535 C47.762,26.535 45.910,28.379 45.910,30.654 C45.910,32.929 47.762,34.773 50.045,34.773 Z" class="cls-1"/>
</svg>
