<?xml version="1.0" ?><!DOCTYPE svg  PUBLIC '-//W3C//DTD SVG 1.1//EN'  'http://www.w3.org/Graphics/SVG/1.1/DTD/svg11.dtd'><svg enable-background="new 0 0 512 512" height="512px" id="Layer_1" version="1.1" viewBox="0 0 512 512" width="512px" xml:space="preserve" xmlns="http://www.w3.org/2000/svg" xmlns:xlink="http://www.w3.org/1999/xlink"><g><path clip-rule="evenodd" d="M25.701,0h460.897C500.509,0,512,11.492,512,25.707v460.892   c0,13.91-11.491,25.401-25.401,25.401H25.701C11.492,512,0,500.509,0,486.599V25.707C0,11.492,11.492,0,25.701,0L25.701,0z    M215.014,308.777c-2.418,9.973,13.011,10.582,15.129,1.509c0.899-4.537-2.418-7.864-6.655-7.864   C219.551,302.422,215.624,305.449,215.014,308.777L215.014,308.777z M211.997,331.15c2.418-11.791-7.265-20.564-18.756-19.955   c-10.882,0.909-19.956,8.464-21.764,17.837c-2.728,12.102,7.255,20.875,18.747,19.966   C201.104,348.389,210.178,340.834,211.997,331.15L211.997,331.15z M301.822,256.455c-37.514-23.588-87.707-23.893-128.238-10.582   c-20.255,6.65-41.73,19.356-54.431,35.384c-14.819,18.746-20.865,42.938-5.446,66.232c22.684,33.865,80.752,48.085,134.273,35.684   c31.458-7.265,65.023-24.802,79.243-55.04C340.534,300.303,326.004,271.884,301.822,256.455L301.822,256.455z M226.816,268.246   c22.374,3.938,40.221,17.848,43.239,41.13c5.746,43.859-51.403,78.934-95.261,55.041c-19.956-10.583-32.956-37.493-17.537-64.414   c10.283-18.146,29.938-29.938,50.803-32.057C214.415,267.037,220.76,267.347,226.816,268.246L226.816,268.246z M371.371,259.482   c-6.345-4.237-12.711-6.655-20.255-9.073c-7.275-2.423-8.474-3.632-5.746-10.892c1.799-5.142,3.328-9.673,3.928-15.724   c3.327-27.221-18.747-35.385-43.858-33.266c-11.781,0.904-21.765,3.932-32.058,7.26c-6.655,2.113-19.056,9.068-21.774,4.836   c-1.509-2.119,0.31-5.446,0.91-7.56c3.927-14.819,5.446-35.384-9.074-44.458c-10.582-6.655-29.029-4.836-40.221-0.909   C142.737,170.262,50.503,257.364,69.25,326.614c4.237,15.729,13.011,27.52,21.474,35.994   c25.102,25.102,64.114,39.012,100.098,44.147c26.311,3.638,53.532,3.328,79.853-1.509c42.929-7.864,84.059-27.221,110.68-61.695   c17.837-22.983,23.583-55.64,0-76.515C378.026,264.02,375.009,261.9,371.371,259.482L371.371,259.482z M409.773,172.38   c15.419,35.08-1.509,50.809,3.927,62.905c4.548,9.978,18.147,10.887,24.203,3.328c4.526-5.746,6.944-22.684,7.255-30.243   c1.509-28.729-8.475-54.136-26.601-73.792c-23.293-25.401-53.841-34.175-87.407-30.848c-6.056,0.604-10.892,1.514-14.22,5.141   c-7.854,8.469-3.927,20.87,6.966,22.684c9.073,1.509,31.746-5.446,57.147,9.373C392.846,148.188,404.027,159.68,409.773,172.38   L409.773,172.38z M328.133,159.075c-6.655,8.164-1.818,20.565,9.673,20.26c6.945-0.3,8.475-1.209,16.019,1.209   c7.255,2.423,14.819,10.587,15.129,20.266c0.6,6.35-6.655,21.169,7.564,25.102c5.126,1.509,10.272-0.909,12.69-3.932   c2.729-3.028,3.928-8.773,4.548-13.61c2.107-20.26-7.875-37.803-23.894-47.786C360.789,155.143,335.677,149.697,328.133,159.075   L328.133,159.075z" fill="#ea716e" fill-rule="evenodd"/></g></svg>