<svg xmlns="http://www.w3.org/2000/svg" xmlns:xlink="http://www.w3.org/1999/xlink" preserveAspectRatio="xMidYMid" width="23" height="23" viewBox="0 0 23 23">
  <defs>
    <style>
      .cls-1 {
        fill: #999;
        fill-rule: evenodd;
      }
    </style>
  </defs>
  <path d="M22.281,5.750 L20.125,5.750 L20.125,22.281 C20.125,22.678 19.803,23.000 19.406,23.000 L3.594,23.000 C3.197,23.000 2.875,22.678 2.875,22.281 L2.875,5.750 L0.719,5.750 C0.322,5.750 -0.000,5.428 -0.000,5.031 C-0.000,4.634 0.322,4.312 0.719,4.312 L5.750,4.312 L5.750,0.719 C5.750,0.322 6.072,-0.000 6.469,-0.000 L16.531,-0.000 C16.928,-0.000 17.250,0.322 17.250,0.719 L17.250,4.312 L22.281,4.312 C22.678,4.312 23.000,4.634 23.000,5.031 C23.000,5.428 22.678,5.750 22.281,5.750 ZM15.812,1.437 L7.187,1.437 L7.187,4.312 L15.812,4.312 L15.812,1.437 ZM18.687,5.750 L16.531,5.750 L6.469,5.750 L4.312,5.750 L4.312,21.562 L18.687,21.562 L18.687,5.750 ZM8.625,18.687 L7.187,18.687 L7.187,8.625 L8.625,8.625 L8.625,18.687 ZM12.219,18.687 L10.781,18.687 L10.781,8.625 L12.219,8.625 L12.219,18.687 ZM15.812,18.687 L14.375,18.687 L14.375,8.625 L15.812,8.625 L15.812,18.687 Z" class="cls-1"/>
</svg>
