<?xml version="1.0" standalone="no"?><!DOCTYPE svg PUBLIC "-//W3C//DTD SVG 1.1//EN" "http://www.w3.org/Graphics/SVG/1.1/DTD/svg11.dtd"><svg width="32" height="32" viewBox="0 0 32 32" version="1.1" xmlns="http://www.w3.org/2000/svg" xmlns:xlink="http://www.w3.org/1999/xlink"><defs><style type="text/css"><![CDATA[

]]></style></defs><g class="transform-group"><g transform="scale(0.03125, 0.03125)"><path d="M848.31521 517.297656c0 7.178493 5.820566 12.999059 13.013385 12.999059s12.999059-5.820566 12.999059-12.999059c0-147.011238-98.94143-276.718369-240.564961-315.443345-6.844895-1.849114-14.068414 2.180666-15.974833 9.100262-1.892093 6.948249 2.181689 14.097066 9.114588 15.989159C757.273704 262.591627 848.31521 381.971551 848.31521 517.297656zM547.330158 216.298278c5.633301 0 11.236925 0.158612 16.812921 0.462534 0.245593 0.014326 0.490164 0.014326 0.722454 0.014326 6.875594 0 12.609179-5.359055 12.971429-12.291954 0.404206-7.164167-5.084808-13.302981-12.249999-13.678534-6.066159-0.332575-12.132318-0.505513-18.256806-0.505513-7.164167 0-13.000082 5.806239-13.000082 13.000082C534.330076 210.477712 540.165991 216.298278 547.330158 216.298278zM536.410458 86.6198c-233.704716 0-423.830915 190.134385-423.830915 423.845241 0 16.799618 1.017166 33.772174 2.989077 50.501184L84.976882 572.010769c-9.359158 3.365654-15.974833 11.136641-17.679661 20.785396-1.9934 11.006681 2.397606 22.560832 11.598152 30.347169l88.787162 72.378447c5.589298 4.709255 11.82942 7.192819 18.055215 7.192819 12.537548 0 22.387893-9.591449 24.988114-24.121374l23.053042-110.728894c1.747807-9.735735-0.924045-19.990287-7.14984-27.429723-7.554046-9.041934-19.630083-12.449543-30.505781-8.549723l-23.173792 8.366551c-0.800225-9.925047-1.208525-19.891026-1.208525-29.786397 0-201.088878 163.592892-364.68177 364.668467-364.68177 201.074551 0 364.667443 163.592892 364.667443 364.68177 0 201.090924-163.592892 364.683816-364.667443 364.683816-88.166015 0-173.270299-31.892361-239.612263-89.799212-12.320607-10.738575-30.996968-9.467629-41.742706 2.837628s-9.474792 30.988782 2.831488 41.735543c77.131705 67.316152 176.043459 104.387465 278.524504 104.387465 233.703693 0 423.830915-190.133362 423.830915-423.845241C960.241372 276.754185 770.114151 86.6198 536.410458 86.6198zM406.385079 597.663008c-8.117888 0-14.2127 1.834788-18.256806 5.446036-4.058432 3.6399-6.080485 10.153244-6.080485 19.528775 0 17.072841 8.53642 25.608238 25.609261 25.608238l100.530624 0 0 84.527139c0 11.526521 1.819438 19.658735 5.431709 24.337291 3.625574 4.709255 10.788717 7.049556 21.463848 7.049556s17.708314-2.340301 21.145599-7.049556c3.37998-4.678556 5.113461-12.811794 5.113461-24.337291L561.34229 648.24708l101.801571 0c17.086144 0 25.622564-8.30413 25.622564-24.959461 0-17.072841-8.53642-25.624611-25.622564-25.624611l-101.801571 0L561.34229 557.336558l101.801571 0c17.086144 0 25.622564-8.320503 25.622564-24.974811 0-17.071817-8.53642-25.622564-25.622564-25.622564l-74.271564 0 92.845595-155.590638c4.693906-8.117888 7.048533-15.050788 7.048533-20.813025 0-5.777587-3.437286-10.761088-10.254551-15.050788-6.41306-4.275373-12.913101-6.398734-19.527752-6.398734-6.615675 0-13.130042 5.344728-19.513426 16.003486l-104.387465 176.101787L430.709067 324.888462c-5.979178-10.225899-12.710486-15.353686-20.177552-15.353686-7.468089 0-13.967106 2.12336-19.514449 6.398734-5.54632 3.827165-8.333806 8.954953-8.333806 15.368012 0 6.398734 1.920746 13.014408 5.763261 19.846l92.845595 155.590638-74.907037 0c-8.117888 0-14.2127 1.834788-18.256806 5.445012-4.058432 3.6399-6.080485 10.154267-6.080485 19.527752 0 17.08819 8.53642 25.624611 25.609261 25.624611l100.530624 0 0 40.326451L406.385079 597.661985z" fill="#272636"></path></g></g></svg>